<svg width="50" height="61" viewBox="0 0 50 61" fill="none" xmlns="http://www.w3.org/2000/svg">
<path d="M12.8923 4.32901C12.6944 0.753514 17.3751 -0.754264 19.3014 2.26446L28.2826 16.339C28.8101 17.1657 29.6619 17.7315 30.6285 17.8972L46.5561 20.6275C49.3271 21.1025 50.4206 24.4969 48.4479 26.5L37.1087 38.0138C36.4206 38.7125 36.0592 39.6691 36.1134 40.6483L37.0362 57.3187C37.2341 60.8942 32.5534 62.402 30.6271 59.3833L21.6459 45.3088C21.1184 44.4821 20.2666 43.9163 19.3 43.7506L3.37235 41.0203C0.601396 40.5453 -0.492064 37.1509 1.48062 35.1478L12.8198 23.6339C13.5079 22.9352 13.8693 21.9786 13.8151 20.9995L12.8923 4.32901Z" fill="#18E2B0"/>
</svg>
